<?xml version="1.0" encoding="UTF-8"?>
<svg version="1.1" xmlns="http://www.w3.org/2000/svg" width="555" height="393">
<path d="M0 0 C2.57942577 0.78173108 2.57942577 0.78173108 5.53125 0.65625 C6.19125 0.65625 6.85125 0.65625 7.53125 0.65625 C7.840625 1.4915625 7.840625 1.4915625 8.15625 2.34375 C9.46513505 4.88517525 9.46513505 4.88517525 12.3125 6.7109375 C17.06595233 10.57802 19.06157992 16.16671562 21.56640625 21.61914062 C24.54583926 27.71781823 27.82933983 31.02987106 33.53125 34.65625 C42.51850908 41.05626783 48.38262043 46.43365589 50.53125 57.65625 C51.53800536 66.71704821 48.17648119 75.55938794 42.53125 82.65625 C36.06256451 90.49656776 29.45123342 92.51789125 19.53125 93.65625 C16.36314625 93.79236844 13.20187397 93.79804194 10.03125 93.78125 C8.71338501 93.77943726 8.71338501 93.77943726 7.36889648 93.77758789 C2.08198758 93.74634422 -3.13681699 93.51596263 -8.40625 93.09375 C-12.87290168 92.74942567 -17.07159451 92.67889833 -21.53125 93.09375 C-54.88184911 96.18558552 -54.88184911 96.18558552 -65.81640625 89.14453125 C-67.8783294 87.42947368 -69.66634762 85.63971563 -71.46875 83.65625 C-72.03335938 83.09679687 -72.59796875 82.53734375 -73.1796875 81.9609375 C-78.97946159 75.8782476 -80.60440474 69.50488935 -80.90625 61.21875 C-80.68368722 53.27140419 -78.80247039 46.81663756 -73.34375 40.90625 C-68.49760407 36.47968381 -62.70512976 32.73504325 -56.46875 30.65625 C-55.42044757 28.44847305 -55.42044757 28.44847305 -54.46875 25.65625 C-49.16434812 14.29694334 -44.08913694 4.95511842 -31.78125 0.21875 C-20.82287232 -3.22184714 -11.03495629 -3.13625074 0 0 Z " fill="#4855A3" transform="translate(293.46875,133.34375)"/>
<path d="M0 0 C11.05247244 7.45520546 16.30451493 17.81009317 19.375 30.5 C21.37011861 41.01971628 20.87758079 52.02421793 15.71484375 61.609375 C12.60025034 66.00431148 8.50219914 69.79093362 3.375 71.5 C-5.86237559 72.28377732 -13.9450607 72.27040811 -21.625 66.5 C-28.61771158 60.15746464 -32.06319591 53.1127104 -32.86328125 43.6953125 C-33.07962256 34.74561406 -31.35305138 26.99566174 -28.625 18.5 C-28.17447266 17.06914063 -28.17447266 17.06914063 -27.71484375 15.609375 C-25.39299668 9.05593652 -21.72991608 3.05825727 -15.70703125 -0.6953125 C-10.46536879 -2.72117079 -5.08482686 -2.10406629 0 0 Z " fill="#4A57A3" transform="translate(315.625,56.5)"/>
<path d="M0 0 C9.50779243 6.01258646 13.01108828 19.80757877 15.50219727 30.08325195 C17.62047851 41.02960657 16.47937494 52.34646093 10.84765625 62.015625 C7.07368495 67.21793961 0.87480038 70.20319154 -5.08984375 72.19140625 C-20.78585166 73.40799644 -20.78585166 73.40799644 -27.08984375 68.19140625 C-34.33211275 60.84970106 -36.35722158 52.98873361 -36.46484375 42.87890625 C-36.32008873 27.61141103 -31.65454735 15.67228343 -21.46875 4.3203125 C-15.42480925 -1.08846863 -7.72238913 -2.98791505 0 0 Z " fill="#4A57A3" transform="translate(257.08984375,55.80859375)"/>
<path d="M0 0 C6.52531893 5.29079913 9.56035138 11.11442646 10.64453125 19.41796875 C10.79148718 20.98466837 10.91390101 22.55399943 11.00390625 24.125 C11.15666016 24.99125 11.15666016 24.99125 11.3125 25.875 C11.9725 26.205 12.6325 26.535 13.3125 26.875 C13.3125 27.535 13.3125 28.195 13.3125 28.875 C12.6525 28.875 11.9925 28.875 11.3125 28.875 C11.27382813 30.09123047 11.27382813 30.09123047 11.234375 31.33203125 C10.62776231 43.17476545 8.32736892 52.70587571 -0.6875 60.875 C-5.64780295 65.28554645 -10.97194774 65.61354497 -17.46484375 65.375 C-23.7557174 64.39896142 -27.71700494 61.49949558 -31.5 56.4609375 C-35.65566916 49.84782937 -37.97935376 44.08644343 -37.75 36.1875 C-37.61268362 31.44604603 -37.61268362 31.44604603 -38.6875 26.875 C-37.6975 26.875 -36.7075 26.875 -35.6875 26.875 C-35.57277344 26.14796875 -35.45804687 25.4209375 -35.33984375 24.671875 C-32.97737056 14.54294803 -24.86847768 7.05956701 -16.546875 1.42578125 C-11.10701216 -1.6261103 -5.92573953 -2.48054213 0 0 Z " fill="#4A57A3" transform="translate(362.6875,107.125)"/>
<path d="M0 0 C11.27319882 5.65658735 19.34560526 15.82939124 23.60546875 27.5390625 C26.23780137 37.19094877 24.2506359 45.81975407 19.5859375 54.484375 C16.33199828 59.39321463 12.40701369 63.35000585 6.765625 65.23046875 C-1.46705206 66.09576514 -7.60806675 65.37062967 -14.234375 60.23046875 C-21.18128849 53.59230697 -24.08188564 44.21130005 -24.47265625 34.7890625 C-24.7121185 23.68711602 -24.83626135 12.84011973 -17.734375 3.60546875 C-12.54033831 -1.32886611 -6.80694895 -2.3443513 0 0 Z " fill="#4A57A3" transform="translate(207.234375,106.76953125)"/>
<path d="M0 0 C0.74967041 -0.00056396 1.49934082 -0.00112793 2.27172852 -0.00170898 C8.1239806 0.11440965 12.66925782 1.25893441 17.6875 4.375 C18.3475 4.705 19.0075 5.035 19.6875 5.375 C19.6875 10.655 19.6875 15.935 19.6875 21.375 C19.0275 21.375 18.3675 21.375 17.6875 21.375 C17.6875 22.035 17.6875 22.695 17.6875 23.375 C14.7175 23.375 11.7475 23.375 8.6875 23.375 C7.6589075 20.42636818 6.72860449 17.73671948 6.375 14.625 C5.89881921 12.20883799 5.89881921 12.20883799 3.6875 11.0625 C-0.2734934 10.15477235 -4.32615758 9.35523799 -8.3125 10.375 C-13.92866329 15.9404759 -15.15520061 23.71046811 -15.4140625 31.38671875 C-14.98774857 38.66450663 -13.08946897 44.36000512 -8.125 49.75 C-3.11329471 52.64565195 1.05249484 54.06023376 6.796875 52.56640625 C8.87812215 51.83289354 10.94402916 51.05371821 12.98828125 50.22265625 C15.79534687 49.34113202 16.98615033 49.34194229 19.6875 50.375 C20.1825 53.345 20.1825 53.345 20.6875 56.375 C18.25093315 57.52285376 15.81330719 58.66835402 13.375 59.8125 C12.68470703 60.13798828 11.99441406 60.46347656 11.28320312 60.79882812 C2.61954077 64.85861193 -4.55754198 65.6613589 -13.75390625 62.60546875 C-21.22512956 59.01243769 -26.85827 53.12603347 -29.70703125 45.35546875 C-29.90683594 44.70191406 -30.10664063 44.04835938 -30.3125 43.375 C-30.56 42.570625 -30.8075 41.76625 -31.0625 40.9375 C-32.10480836 30.25383929 -30.84910362 19.89651453 -24.5 10.875 C-17.83903605 2.92211105 -10.24392412 -0.0193647 0 0 Z " fill="#351852" transform="translate(206.3125,264.625)"/>
<path d="M0 0 C0.66 0 1.32 0 2 0 C2 0.66 2 1.32 2 2 C1.34 2 0.68 2 0 2 C0 2.99 0 3.98 0 5 C0.69867188 4.57847656 1.39734375 4.15695312 2.1171875 3.72265625 C3.02726562 3.17480469 3.93734375 2.62695312 4.875 2.0625 C5.77992188 1.51722656 6.68484375 0.97195313 7.6171875 0.41015625 C11.81861889 -2.07626462 15.15553395 -2.39983117 20 -2 C22.875 -1 22.875 -1 25 0 C25.66 0 26.32 0 27 0 C27.85916096 4.44147569 28.11697565 8.62769824 28.09765625 13.1484375 C28.0962413 13.80582916 28.09482635 14.46322083 28.09336853 15.14053345 C28.08781762 17.21873731 28.07527465 19.29682927 28.0625 21.375 C28.05747864 22.79296718 28.05291685 24.21093607 28.04882812 25.62890625 C28.03786437 29.08597322 28.02063421 32.54297567 28 36 C28.804375 36.144375 29.60875 36.28875 30.4375 36.4375 C33 37 33 37 34 38 C34 39.65 34 41.3 34 43 C25.75 43 17.5 43 9 43 C9 41.68 9 40.36 9 39 C11.475 38.505 11.475 38.505 14 38 C13.91912143 33.91585562 13.80627597 29.83320414 13.6875 25.75 C13.65366211 24.01169922 13.65366211 24.01169922 13.61914062 22.23828125 C13.58369141 21.12324219 13.54824219 20.00820313 13.51171875 18.859375 C13.48553467 17.83295898 13.45935059 16.80654297 13.43237305 15.74902344 C12.95100114 12.68846573 12.04762948 11.27885191 10 9 C7.03 9.66 4.06 10.32 1 11 C0.67 15.62 0.34 20.24 0 25 C0.66 25 1.32 25 2 25 C2 25.66 2 26.32 2 27 C1.34 27 0.68 27 0 27 C0 29.97 0 32.94 0 36 C1.98 36.66 3.96 37.32 6 38 C5.67 39.65 5.34 41.3 5 43 C-3.58 43 -12.16 43 -21 43 C-21 41.68 -21 40.36 -21 39 C-18.69 38.34 -16.38 37.68 -14 37 C-14 27.1 -14 17.2 -14 7 C-16.31 6.67 -18.62 6.34 -21 6 C-21.33 4.35 -21.66 2.7 -22 1 C-7.36065574 -4.90710383 -7.36065574 -4.90710383 0 0 Z " fill="#331651" transform="translate(299,284)"/>
<path d="M0 0 C1.25 1.6875 1.25 1.6875 1.25 5.6875 C1.94867188 5.26597656 2.64734375 4.84445312 3.3671875 4.41015625 C4.27726562 3.86230469 5.18734375 3.31445312 6.125 2.75 C7.02992188 2.20472656 7.93484375 1.65945313 8.8671875 1.09765625 C13.05766865 -1.38228423 16.40960408 -1.8151565 21.25 -1.3125 C24.72179449 0.0762178 25.93653281 1.16762395 27.8684082 4.37158203 C29.41011846 8.07179563 29.59595979 10.62519611 29.54296875 14.6171875 C29.5284668 16.55078125 29.5284668 16.55078125 29.51367188 18.5234375 C29.48861188 19.86979786 29.46321712 21.21615203 29.4375 22.5625 C29.42243504 23.93227705 29.40874982 25.30207002 29.39648438 26.671875 C29.36121379 30.01082358 29.31191896 33.34895675 29.25 36.6875 C30.054375 36.831875 30.85875 36.97625 31.6875 37.125 C34.25 37.6875 34.25 37.6875 35.25 38.6875 C35.25 40.3375 35.25 41.9875 35.25 43.6875 C27 43.6875 18.75 43.6875 10.25 43.6875 C10.25 42.3675 10.25 41.0475 10.25 39.6875 C12.725 39.1925 12.725 39.1925 15.25 38.6875 C15.16892198 34.79082753 15.05609388 30.89569696 14.9375 27 C14.90366211 25.34581055 14.90366211 25.34581055 14.86914062 23.65820312 C14.83369141 22.59150391 14.79824219 21.52480469 14.76171875 20.42578125 C14.73553467 19.44649658 14.70935059 18.46721191 14.68237305 17.45825195 C14.18662949 14.28140633 13.05474494 12.32003249 11.25 9.6875 C8.28 10.3475 5.31 11.0075 2.25 11.6875 C1.92 19.9375 1.59 28.1875 1.25 36.6875 C3.23 37.3475 5.21 38.0075 7.25 38.6875 C6.92 40.3375 6.59 41.9875 6.25 43.6875 C-2.33 43.6875 -10.91 43.6875 -19.75 43.6875 C-19.75 42.3675 -19.75 41.0475 -19.75 39.6875 C-17.44 39.0275 -15.13 38.3675 -12.75 37.6875 C-12.75 27.7875 -12.75 17.8875 -12.75 7.6875 C-15.06 7.3575 -17.37 7.0275 -19.75 6.6875 C-20.08 5.0375 -20.41 3.3875 -20.75 1.6875 C-5.79562738 -4.34672053 -5.79562738 -4.34672053 0 0 Z " fill="#321550" transform="translate(356.75,283.3125)"/>
<path d="M0 0 C5.03082213 5.03082213 7.17643119 10.96023569 7.1875 18 C7.14018053 19.33395836 7.08326237 20.66780204 7 22 C7.66 22 8.32 22 9 22 C9 22.66 9 23.32 9 24 C8.01 24 7.02 24 6 24 C5.9175 24.86625 5.835 25.7325 5.75 26.625 C4.40355187 32.6840166 1.0558076 36.54725334 -4 40 C-9.96335491 42.83437141 -16.7590335 43.05065535 -23.16015625 41.46484375 C-30.14604682 38.65513392 -33.73825802 34.52348396 -37 28 C-39.18630504 21.15341315 -39.06845575 12.42812347 -36.18359375 5.81640625 C-32.53605306 0.21869529 -26.76669956 -4.03642569 -20.3125 -5.6875 C-12.23795839 -6.44924921 -6.38868142 -5.12546487 0 0 Z M-22 6 C-25.06650152 13.50979963 -24.49797575 22.118881 -21.625 29.5625 C-20.07291667 32.22916667 -20.07291667 32.22916667 -17 34 C-14.0825723 34.36467846 -12.63434213 34.47575659 -10.25 32.6875 C-7.35224396 28.77552934 -7.78157289 24.33266098 -7.75 19.6875 C-7.729375 18.94048828 -7.70875 18.19347656 -7.6875 17.42382812 C-7.6532391 12.54593285 -8.27396879 9.21006222 -11 5 C-15.42732238 2.04845174 -18.54183711 1.79130176 -22 6 Z " fill="#351852" transform="translate(267,287)"/>
<path d="M0 0 C8.25 0 16.5 0 25 0 C25 1.65 25 3.3 25 5 C24.01 5.66 23.02 6.32 22 7 C22.18175781 7.64324219 22.36351563 8.28648437 22.55078125 8.94921875 C24.58340421 16.25623769 26.32944697 23.60183659 28 31 C29.98 23.08 31.96 15.16 34 7 C32.68 6.67 31.36 6.34 30 6 C30 4.02 30 2.04 30 0 C37.26 0 44.52 0 52 0 C52.495 2.475 52.495 2.475 53 5 C52.24154785 5.33773438 51.4830957 5.67546875 50.70166016 6.0234375 C47.14335277 8.62673197 46.16729845 11.60348665 44.7734375 15.625 C44.49907867 16.36830566 44.22471985 17.11161133 43.94204712 17.87744141 C43.07012826 20.24607195 42.22123029 22.62208325 41.375 25 C40.51864298 27.37663129 39.65739716 29.75120477 38.78652954 32.12255859 C38.24642187 33.59612038 37.71509993 35.07293971 37.19369507 36.55322266 C34.83246799 43.04715771 34.83246799 43.04715771 32 45 C28.86328125 45.29296875 28.86328125 45.29296875 25.3125 45.1875 C23.54326172 45.14689453 23.54326172 45.14689453 21.73828125 45.10546875 C20.83464844 45.07066406 19.93101563 45.03585937 19 45 C15.11084544 35.16204986 11.32675646 25.30691058 7.86669922 15.30883789 C6.59230918 11.58942388 6.59230918 11.58942388 5 8 C3.35636866 7.27840576 1.68949614 6.60648579 0 6 C0 4.02 0 2.04 0 0 Z " fill="#361953" transform="translate(40,283)"/>
<path d="M0 0 C3.53319235 3.99808608 4.59718396 7.62944044 5.41015625 12.75390625 C4.7117211 16.57867015 3.15168718 17.78457197 0 20 C-3.7485293 20.63131153 -7.39838778 20.51687767 -11.1875 20.375 C-12.19748047 20.36082031 -13.20746094 20.34664063 -14.24804688 20.33203125 C-21.6322953 20.18385235 -21.6322953 20.18385235 -24 19 C-21.50704429 26.24995342 -21.50704429 26.24995342 -16 31 C-9.56674745 32.44193592 -4.34746211 31.57385843 2 30 C2.66 31.65 3.32 33.3 4 35 C2.41779413 35.96019364 0.83418669 36.91807798 -0.75 37.875 C-1.63171875 38.40867187 -2.5134375 38.94234375 -3.421875 39.4921875 C-9.22409037 42.88560437 -13.59079078 43.90153934 -20.2734375 42.53515625 C-27.34155922 40.49673889 -32.27885332 37.09806402 -35.875 30.625 C-38.4008941 22.4860079 -38.70855912 15.56485782 -34.92578125 7.79296875 C-31.7637626 2.41653956 -27.90971329 -1.67193113 -22 -4 C-13.92038742 -6.06687764 -6.70095352 -4.86147609 0 0 Z M-18 3 C-20.89331309 6.06350798 -21.96178302 7.84713208 -23 12 C-18.38 12 -13.76 12 -9 12 C-9.49946608 7.05111262 -9.49946608 7.05111262 -12.375 4.6875 C-14.90048558 2.7296212 -14.90048558 2.7296212 -18 3 Z " fill="#371A53" transform="translate(130,286)"/>
<path d="M0 0 C4.88921085 4.19075215 7.06673315 7.79664019 8.9140625 13.87109375 C8.52186667 17.09875943 7.00506925 18.8789359 4.64794922 21.04370117 C0.67081317 23.41529533 -3.63411602 22.90559354 -8.125 22.6875 C-9.08277344 22.66880859 -10.04054688 22.65011719 -11.02734375 22.63085938 C-17.97589983 22.44955008 -17.97589983 22.44955008 -20.375 21.25 C-17.88204429 28.49995342 -17.88204429 28.49995342 -12.375 33.25 C-5.94174745 34.69193592 -0.72246211 33.82385843 5.625 32.25 C6.285 33.9 6.945 35.55 7.625 37.25 C5.30211552 38.60501595 2.96943284 39.93320281 0.625 41.25 C-0.02339844 41.6315625 -0.67179687 42.013125 -1.33984375 42.40625 C-6.99538032 45.54199305 -11.51859261 46.31199526 -17.9140625 44.55078125 C-23.7739854 41.77445074 -28.42080662 39.08021111 -32.1875 33.625 C-34.79302933 26.21981138 -35.11708614 19.0580712 -32.51953125 11.609375 C-29.49005895 5.36431947 -24.93263135 0.67347246 -18.375 -1.75 C-12.35020862 -3.75826379 -5.54352335 -2.87441952 0 0 Z M-14.375 5.25 C-18.33492993 9.10940447 -18.33492993 9.10940447 -19.375 14.25 C-14.755 14.25 -10.135 14.25 -5.375 14.25 C-5.87446608 9.30111262 -5.87446608 9.30111262 -8.75 6.9375 C-11.27548558 4.9796212 -11.27548558 4.9796212 -14.375 5.25 Z " fill="#371A53" transform="translate(428.375,283.75)"/>
<path d="M0 0 C4 4.94736842 4 4.94736842 4 9 C2.03125 10.60546875 2.03125 10.60546875 -0.5 12.1875 C-1.3353125 12.71730469 -2.170625 13.24710937 -3.03125 13.79296875 C-3.6809375 14.19128906 -4.330625 14.58960938 -5 15 C-5.44730469 14.59007812 -5.89460938 14.18015625 -6.35546875 13.7578125 C-9.73744485 10.74359926 -12.579668 8.33949455 -17 7 C-20.37542807 11.69624775 -21.42042338 16.43953953 -20.75 22.1171875 C-19.80210762 26.60274965 -18.30473531 29.69526469 -15 33 C-9.36457579 34.87847474 -3.7706379 33.94214496 2 33 C2.66 34.65 3.32 36.3 4 38 C-9.86687227 46.28630172 -9.86687227 46.28630172 -17 45 C-24.05566494 43.10082258 -29.1115238 40.31877383 -33 34 C-36.44763224 27.05701742 -36.32070571 18.11958588 -33.984375 10.83203125 C-32.79979668 8.3594024 -31.69812466 6.15255238 -30 4 C-29.01 3.67 -28.02 3.34 -27 3 C-27 2.01 -27 1.02 -27 0 C-26.41605469 -0.14179688 -25.83210938 -0.28359375 -25.23046875 -0.4296875 C-23.2424246 -0.93801403 -21.27519414 -1.52621196 -19.3125 -2.125 C-12.99030555 -3.70260532 -5.84869873 -2.85634124 0 0 Z " fill="#361953" transform="translate(476,284)"/>
<path d="M0 0 C2.31 0 4.62 0 7 0 C7.33569297 1.62451419 7.6684796 3.24962917 8 4.875 C8.185625 5.77992188 8.37125 6.68484375 8.5625 7.6171875 C9 10 9 10 9 12 C12.96 12 16.92 12 21 12 C22 16 22 16 20.0625 19.25 C18.91015625 20.828125 18.91015625 20.828125 17 22 C14.36 22 11.72 22 9 22 C9.33 29.26 9.66 36.52 10 44 C13.66581454 44.73316291 16.36699832 45.10380005 20 45 C20.495 47.475 20.495 47.475 21 50 C18.99278019 51.21036864 16.9684867 52.39245016 14.9375 53.5625 C13.81214844 54.22378906 12.68679687 54.88507813 11.52734375 55.56640625 C7.40965654 57.23992918 5.26216762 57.09759792 1 56 C-1.70567626 54.17660948 -3.53728718 52.92542564 -5 50 C-5.08559118 47.82175039 -5.10713412 45.64084745 -5.09765625 43.4609375 C-5.09282227 41.50800781 -5.09282227 41.50800781 -5.08789062 39.515625 C-5.07953466 38.13541601 -5.07106971 36.75520768 -5.0625 35.375 C-5.05748501 33.98698074 -5.0529221 32.59895978 -5.04882812 31.2109375 C-5.03700976 27.80724868 -5.02053434 24.40364561 -5 21 C-7.31 21 -9.62 21 -12 21 C-12.375 18.75 -12.375 18.75 -12 16 C-7.02702703 12 -7.02702703 12 -4 12 C-3.8453125 10.9790625 -3.8453125 10.9790625 -3.6875 9.9375 C-2.85274981 6.37084011 -1.50527246 3.33777806 0 0 Z " fill="#331551" transform="translate(150,272)"/>
<path d="M0 0 C2.64 0 5.28 0 8 0 C8.98248524 4.0527516 9.08159574 7.83861737 9 12 C13.29 12 17.58 12 22 12 C22 17 22 17 20.5 19.8125 C18 22 18 22 10 22 C10.33 29.59 10.66 37.18 11 45 C14.3 45 17.6 45 21 45 C21.495 47.475 21.495 47.475 22 50 C19.82284041 51.21087517 17.63662881 52.39275063 15.4375 53.5625 C14.52387695 54.07586914 14.52387695 54.07586914 13.59179688 54.59960938 C9.07766626 56.96415398 6.06216769 57.5535007 1 56 C-2.33730458 53.35436791 -3.84069858 51.93217027 -4.56762695 47.6784668 C-4.54144287 46.44781494 -4.51525879 45.21716309 -4.48828125 43.94921875 C-4.48120651 43.29041214 -4.47413177 42.63160553 -4.46684265 41.95283508 C-4.43900979 39.86319966 -4.37630819 37.77631524 -4.3125 35.6875 C-4.28740205 34.26501286 -4.26459148 32.84248341 -4.24414062 31.41992188 C-4.18922446 27.94573139 -4.10303685 24.4731345 -4 21 C-6.31 21 -8.62 21 -11 21 C-11 19.02 -11 17.04 -11 15 C-9.9275 14.566875 -8.855 14.13375 -7.75 13.6875 C-3.08209476 11.10263564 -2.15516574 7.14454654 -0.62890625 2.265625 C-0.31759766 1.14414062 -0.31759766 1.14414062 0 0 Z " fill="#321450" transform="translate(494,272)"/>
<path d="M0 0 C0.66 0.33 1.32 0.66 2 1 C-2.62 5.62 -7.24 10.24 -12 15 C-12 11.11566834 -10.82920314 10.32394504 -8.25 7.5 C-7.55390625 6.7265625 -6.8578125 5.953125 -6.140625 5.15625 C-4.19891408 3.20036601 -2.25069252 1.58156772 0 0 Z " fill="#7476AA" transform="translate(344,110)"/>
<path d="M0 0 C0.66 0.33 1.32 0.66 2 1 C-1.63 4.63 -5.26 8.26 -9 12 C-9 8.47601214 -8.44884893 7.98495633 -6.1875 5.4375 C-5.40439453 4.53837891 -5.40439453 4.53837891 -4.60546875 3.62109375 C-3 2 -3 2 0 0 Z " fill="#5E446E" transform="translate(190,268)"/>
<path d="M0 0 C0.99 0.33 1.98 0.66 3 1 C0.36 3.64 -2.28 6.28 -5 9 C-5.33 8.34 -5.66 7.68 -6 7 C-4.02 4.69 -2.04 2.38 0 0 Z " fill="#593F6B" transform="translate(102,285)"/>
<path d="M0 0 C0.66 0.33 1.32 0.66 2 1 C-0.64 3.64 -3.28 6.28 -6 9 C-6 5.06368636 -4.57142871 3.87394974 -2 1 C-1.34 0.67 -0.68 0.34 0 0 Z " fill="#7577AA" transform="translate(194,107)"/>
<path d="M0 0 C0.66 0 1.32 0 2 0 C1.82374165 2.37948772 1.30280227 3.70225849 -0.40234375 5.37890625 C-1.90649092 6.62115486 -3.45129851 7.81376056 -5 9 C-4.1875 6.5625 -4.1875 6.5625 -3 4 C-2.01 3.67 -1.02 3.34 0 3 C0 2.01 0 1.02 0 0 Z " fill="#6B5275" transform="translate(449,284)"/>
<path d="M0 0 C0.66 0 1.32 0 2 0 C2 0.66 2 1.32 2 2 C1.34 2 0.68 2 0 2 C0 1.34 0 0.68 0 0 Z " fill="#AB9B9B" transform="translate(549,384)"/>
<path d="M0 0 C0.66 0 1.32 0 2 0 C2 0.66 2 1.32 2 2 C1.34 2 0.68 2 0 2 C0 1.34 0 0.68 0 0 Z " fill="#AB9B9B" transform="translate(524,384)"/>
<path d="M0 0 C0.66 0 1.32 0 2 0 C2 0.66 2 1.32 2 2 C1.34 2 0.68 2 0 2 C0 1.34 0 0.68 0 0 Z " fill="#AB9B9B" transform="translate(499,384)"/>
<path d="M0 0 C0.66 0 1.32 0 2 0 C2 0.66 2 1.32 2 2 C1.34 2 0.68 2 0 2 C0 1.34 0 0.68 0 0 Z " fill="#AB9B9B" transform="translate(474,384)"/>
<path d="M0 0 C0.66 0 1.32 0 2 0 C2 0.66 2 1.32 2 2 C1.34 2 0.68 2 0 2 C0 1.34 0 0.68 0 0 Z " fill="#AB9B9B" transform="translate(449,384)"/>
<path d="M0 0 C0.66 0 1.32 0 2 0 C2 0.66 2 1.32 2 2 C1.34 2 0.68 2 0 2 C0 1.34 0 0.68 0 0 Z " fill="#AB9B9B" transform="translate(424,384)"/>
<path d="M0 0 C0.66 0 1.32 0 2 0 C2 0.66 2 1.32 2 2 C1.34 2 0.68 2 0 2 C0 1.34 0 0.68 0 0 Z " fill="#AB9B9B" transform="translate(399,384)"/>
<path d="M0 0 C0.66 0 1.32 0 2 0 C2 0.66 2 1.32 2 2 C1.34 2 0.68 2 0 2 C0 1.34 0 0.68 0 0 Z " fill="#AB9B9B" transform="translate(374,384)"/>
<path d="M0 0 C0.66 0 1.32 0 2 0 C2 0.66 2 1.32 2 2 C1.34 2 0.68 2 0 2 C0 1.34 0 0.68 0 0 Z " fill="#AB9B9B" transform="translate(349,384)"/>
<path d="M0 0 C0.66 0 1.32 0 2 0 C2 0.66 2 1.32 2 2 C1.34 2 0.68 2 0 2 C0 1.34 0 0.68 0 0 Z " fill="#AB9B9B" transform="translate(324,384)"/>
<path d="M0 0 C0.66 0 1.32 0 2 0 C2 0.66 2 1.32 2 2 C1.34 2 0.68 2 0 2 C0 1.34 0 0.68 0 0 Z " fill="#AB9B9B" transform="translate(299,384)"/>
<path d="M0 0 C0.66 0 1.32 0 2 0 C2 0.66 2 1.32 2 2 C1.34 2 0.68 2 0 2 C0 1.34 0 0.68 0 0 Z " fill="#AB9B9B" transform="translate(274,384)"/>
<path d="M0 0 C0.66 0 1.32 0 2 0 C2 0.66 2 1.32 2 2 C1.34 2 0.68 2 0 2 C0 1.34 0 0.68 0 0 Z " fill="#AB9B9B" transform="translate(249,384)"/>
<path d="M0 0 C0.66 0 1.32 0 2 0 C2 0.66 2 1.32 2 2 C1.34 2 0.68 2 0 2 C0 1.34 0 0.68 0 0 Z " fill="#AB9B9B" transform="translate(224,384)"/>
<path d="M0 0 C0.66 0 1.32 0 2 0 C2 0.66 2 1.32 2 2 C1.34 2 0.68 2 0 2 C0 1.34 0 0.68 0 0 Z " fill="#AB9B9B" transform="translate(199,384)"/>
<path d="M0 0 C0.66 0 1.32 0 2 0 C2 0.66 2 1.32 2 2 C1.34 2 0.68 2 0 2 C0 1.34 0 0.68 0 0 Z " fill="#AB9B9B" transform="translate(174,384)"/>
<path d="M0 0 C0.66 0 1.32 0 2 0 C2 0.66 2 1.32 2 2 C1.34 2 0.68 2 0 2 C0 1.34 0 0.68 0 0 Z " fill="#AB9B9B" transform="translate(149,384)"/>
<path d="M0 0 C0.66 0 1.32 0 2 0 C2 0.66 2 1.32 2 2 C1.34 2 0.68 2 0 2 C0 1.34 0 0.68 0 0 Z " fill="#AB9B9B" transform="translate(124,384)"/>
<path d="M0 0 C0.66 0 1.32 0 2 0 C2 0.66 2 1.32 2 2 C1.34 2 0.68 2 0 2 C0 1.34 0 0.68 0 0 Z " fill="#AB9B9B" transform="translate(99,384)"/>
<path d="M0 0 C0.66 0 1.32 0 2 0 C2 0.66 2 1.32 2 2 C1.34 2 0.68 2 0 2 C0 1.34 0 0.68 0 0 Z " fill="#AB9B9B" transform="translate(74,384)"/>
<path d="M0 0 C0.66 0 1.32 0 2 0 C2 0.66 2 1.32 2 2 C1.34 2 0.68 2 0 2 C0 1.34 0 0.68 0 0 Z " fill="#AB9B9B" transform="translate(49,384)"/>
<path d="M0 0 C0.66 0 1.32 0 2 0 C2 0.66 2 1.32 2 2 C1.34 2 0.68 2 0 2 C0 1.34 0 0.68 0 0 Z " fill="#AB9B9B" transform="translate(24,384)"/>
<path d="M0 0 C0.66 0 1.32 0 2 0 C2 0.66 2 1.32 2 2 C1.34 2 0.68 2 0 2 C0 1.34 0 0.68 0 0 Z " fill="#AB9B9B" transform="translate(549,359)"/>
<path d="M0 0 C0.66 0 1.32 0 2 0 C2 0.66 2 1.32 2 2 C1.34 2 0.68 2 0 2 C0 1.34 0 0.68 0 0 Z " fill="#AB9B9B" transform="translate(524,359)"/>
<path d="M0 0 C0.66 0 1.32 0 2 0 C2 0.66 2 1.32 2 2 C1.34 2 0.68 2 0 2 C0 1.34 0 0.68 0 0 Z " fill="#AB9B9B" transform="translate(499,359)"/>
<path d="M0 0 C0.66 0 1.32 0 2 0 C2 0.66 2 1.32 2 2 C1.34 2 0.68 2 0 2 C0 1.34 0 0.68 0 0 Z " fill="#AB9B9B" transform="translate(474,359)"/>
<path d="M0 0 C0.66 0 1.32 0 2 0 C2 0.66 2 1.32 2 2 C1.34 2 0.68 2 0 2 C0 1.34 0 0.68 0 0 Z " fill="#AB9B9B" transform="translate(449,359)"/>
<path d="M0 0 C0.66 0 1.32 0 2 0 C2 0.66 2 1.32 2 2 C1.34 2 0.68 2 0 2 C0 1.34 0 0.68 0 0 Z " fill="#AB9B9B" transform="translate(424,359)"/>
<path d="M0 0 C0.66 0 1.32 0 2 0 C2 0.66 2 1.32 2 2 C1.34 2 0.68 2 0 2 C0 1.34 0 0.68 0 0 Z " fill="#AB9B9B" transform="translate(399,359)"/>
<path d="M0 0 C0.66 0 1.32 0 2 0 C2 0.66 2 1.32 2 2 C1.34 2 0.68 2 0 2 C0 1.34 0 0.68 0 0 Z " fill="#AB9B9B" transform="translate(374,359)"/>
<path d="M0 0 C0.66 0 1.32 0 2 0 C2 0.66 2 1.32 2 2 C1.34 2 0.68 2 0 2 C0 1.34 0 0.68 0 0 Z " fill="#AB9B9B" transform="translate(349,359)"/>
<path d="M0 0 C0.66 0 1.32 0 2 0 C2 0.66 2 1.32 2 2 C1.34 2 0.68 2 0 2 C0 1.34 0 0.68 0 0 Z " fill="#AB9B9B" transform="translate(324,359)"/>
<path d="M0 0 C0.66 0 1.32 0 2 0 C2 0.66 2 1.32 2 2 C1.34 2 0.68 2 0 2 C0 1.34 0 0.68 0 0 Z " fill="#AB9B9B" transform="translate(299,359)"/>
<path d="M0 0 C0.66 0 1.32 0 2 0 C2 0.66 2 1.32 2 2 C1.34 2 0.68 2 0 2 C0 1.34 0 0.68 0 0 Z " fill="#AB9B9B" transform="translate(274,359)"/>
<path d="M0 0 C0.66 0 1.32 0 2 0 C2 0.66 2 1.32 2 2 C1.34 2 0.68 2 0 2 C0 1.34 0 0.68 0 0 Z " fill="#AB9B9B" transform="translate(249,359)"/>
<path d="M0 0 C0.66 0 1.32 0 2 0 C2 0.66 2 1.32 2 2 C1.34 2 0.68 2 0 2 C0 1.34 0 0.68 0 0 Z " fill="#AB9B9B" transform="translate(224,359)"/>
<path d="M0 0 C0.66 0 1.32 0 2 0 C2 0.66 2 1.32 2 2 C1.34 2 0.68 2 0 2 C0 1.34 0 0.68 0 0 Z " fill="#AB9B9B" transform="translate(199,359)"/>
<path d="M0 0 C0.66 0 1.32 0 2 0 C2 0.66 2 1.32 2 2 C1.34 2 0.68 2 0 2 C0 1.34 0 0.68 0 0 Z " fill="#AB9B9B" transform="translate(174,359)"/>
<path d="M0 0 C0.66 0 1.32 0 2 0 C2 0.66 2 1.32 2 2 C1.34 2 0.68 2 0 2 C0 1.34 0 0.68 0 0 Z " fill="#AB9B9B" transform="translate(149,359)"/>
<path d="M0 0 C0.66 0 1.32 0 2 0 C2 0.66 2 1.32 2 2 C1.34 2 0.68 2 0 2 C0 1.34 0 0.68 0 0 Z " fill="#AB9B9B" transform="translate(124,359)"/>
<path d="M0 0 C0.66 0 1.32 0 2 0 C2 0.66 2 1.32 2 2 C1.34 2 0.68 2 0 2 C0 1.34 0 0.68 0 0 Z " fill="#AB9B9B" transform="translate(99,359)"/>
<path d="M0 0 C0.66 0 1.32 0 2 0 C2 0.66 2 1.32 2 2 C1.34 2 0.68 2 0 2 C0 1.34 0 0.68 0 0 Z " fill="#AB9B9B" transform="translate(74,359)"/>
<path d="M0 0 C0.66 0 1.32 0 2 0 C2 0.66 2 1.32 2 2 C1.34 2 0.68 2 0 2 C0 1.34 0 0.68 0 0 Z " fill="#AB9B9B" transform="translate(49,359)"/>
<path d="M0 0 C0.66 0 1.32 0 2 0 C2 0.66 2 1.32 2 2 C1.34 2 0.68 2 0 2 C0 1.34 0 0.68 0 0 Z " fill="#AB9B9B" transform="translate(24,359)"/>
<path d="M0 0 C0.66 0 1.32 0 2 0 C2 0.66 2 1.32 2 2 C1.34 2 0.68 2 0 2 C0 1.34 0 0.68 0 0 Z " fill="#AB9B9B" transform="translate(549,334)"/>
<path d="M0 0 C0.66 0 1.32 0 2 0 C2 0.66 2 1.32 2 2 C1.34 2 0.68 2 0 2 C0 1.34 0 0.68 0 0 Z " fill="#AB9B9B" transform="translate(524,334)"/>
<path d="M0 0 C0.66 0 1.32 0 2 0 C2 0.66 2 1.32 2 2 C1.34 2 0.68 2 0 2 C0 1.34 0 0.68 0 0 Z " fill="#AB9B9B" transform="translate(499,334)"/>
<path d="M0 0 C0.66 0 1.32 0 2 0 C2 0.66 2 1.32 2 2 C1.34 2 0.68 2 0 2 C0 1.34 0 0.68 0 0 Z " fill="#AB9B9B" transform="translate(474,334)"/>
<path d="M0 0 C0.66 0 1.32 0 2 0 C2 0.66 2 1.32 2 2 C1.34 2 0.68 2 0 2 C0 1.34 0 0.68 0 0 Z " fill="#AB9B9B" transform="translate(449,334)"/>
<path d="M0 0 C0.66 0 1.32 0 2 0 C2 0.66 2 1.32 2 2 C1.34 2 0.68 2 0 2 C0 1.34 0 0.68 0 0 Z " fill="#AB9B9B" transform="translate(424,334)"/>
<path d="M0 0 C0.66 0 1.32 0 2 0 C2 0.66 2 1.32 2 2 C1.34 2 0.68 2 0 2 C0 1.34 0 0.68 0 0 Z " fill="#AB9B9B" transform="translate(399,334)"/>
<path d="M0 0 C0.66 0 1.32 0 2 0 C2 0.66 2 1.32 2 2 C1.34 2 0.68 2 0 2 C0 1.34 0 0.68 0 0 Z " fill="#AB9B9B" transform="translate(374,334)"/>
<path d="M0 0 C0.66 0 1.32 0 2 0 C2 0.66 2 1.32 2 2 C1.34 2 0.68 2 0 2 C0 1.34 0 0.68 0 0 Z " fill="#AB9B9B" transform="translate(349,334)"/>
<path d="M0 0 C0.66 0 1.32 0 2 0 C2 0.66 2 1.32 2 2 C1.34 2 0.68 2 0 2 C0 1.34 0 0.68 0 0 Z " fill="#AB9B9B" transform="translate(324,334)"/>
<path d="M0 0 C0.66 0 1.32 0 2 0 C2 0.66 2 1.32 2 2 C1.34 2 0.68 2 0 2 C0 1.34 0 0.68 0 0 Z " fill="#AB9B9B" transform="translate(299,334)"/>
<path d="M0 0 C0.66 0 1.32 0 2 0 C2 0.66 2 1.32 2 2 C1.34 2 0.68 2 0 2 C0 1.34 0 0.68 0 0 Z " fill="#AB9B9B" transform="translate(274,334)"/>
<path d="M0 0 C0.66 0 1.32 0 2 0 C2 0.66 2 1.32 2 2 C1.34 2 0.68 2 0 2 C0 1.34 0 0.68 0 0 Z " fill="#AB9B9B" transform="translate(249,334)"/>
<path d="M0 0 C0.66 0 1.32 0 2 0 C2 0.66 2 1.32 2 2 C1.34 2 0.68 2 0 2 C0 1.34 0 0.68 0 0 Z " fill="#AB9B9B" transform="translate(224,334)"/>
<path d="M0 0 C0.66 0 1.32 0 2 0 C2 0.66 2 1.32 2 2 C1.34 2 0.68 2 0 2 C0 1.34 0 0.68 0 0 Z " fill="#AB9B9B" transform="translate(199,334)"/>
<path d="M0 0 C0.66 0 1.32 0 2 0 C2 0.66 2 1.32 2 2 C1.34 2 0.68 2 0 2 C0 1.34 0 0.68 0 0 Z " fill="#AB9B9B" transform="translate(174,334)"/>
<path d="M0 0 C0.66 0 1.32 0 2 0 C2 0.66 2 1.32 2 2 C1.34 2 0.68 2 0 2 C0 1.34 0 0.68 0 0 Z " fill="#AB9B9B" transform="translate(149,334)"/>
<path d="M0 0 C0.66 0 1.32 0 2 0 C2 0.66 2 1.32 2 2 C1.34 2 0.68 2 0 2 C0 1.34 0 0.68 0 0 Z " fill="#AB9B9B" transform="translate(124,334)"/>
<path d="M0 0 C0.66 0 1.32 0 2 0 C2 0.66 2 1.32 2 2 C1.34 2 0.68 2 0 2 C0 1.34 0 0.68 0 0 Z " fill="#AB9B9B" transform="translate(99,334)"/>
<path d="M0 0 C0.66 0 1.32 0 2 0 C2 0.66 2 1.32 2 2 C1.34 2 0.68 2 0 2 C0 1.34 0 0.68 0 0 Z " fill="#AB9B9B" transform="translate(74,334)"/>
<path d="M0 0 C0.66 0 1.32 0 2 0 C2 0.66 2 1.32 2 2 C1.34 2 0.68 2 0 2 C0 1.34 0 0.68 0 0 Z " fill="#AB9B9B" transform="translate(49,334)"/>
<path d="M0 0 C0.66 0 1.32 0 2 0 C2 0.66 2 1.32 2 2 C1.34 2 0.68 2 0 2 C0 1.34 0 0.68 0 0 Z " fill="#AB9B9B" transform="translate(24,334)"/>
<path d="M0 0 C0.66 0 1.32 0 2 0 C2 0.66 2 1.32 2 2 C1.34 2 0.68 2 0 2 C0 1.34 0 0.68 0 0 Z " fill="#AB9B9B" transform="translate(549,309)"/>
<path d="M0 0 C0.66 0 1.32 0 2 0 C2 0.66 2 1.32 2 2 C1.34 2 0.68 2 0 2 C0 1.34 0 0.68 0 0 Z " fill="#AB9B9B" transform="translate(524,309)"/>
<path d="M0 0 C0.66 0 1.32 0 2 0 C2 0.66 2 1.32 2 2 C1.34 2 0.68 2 0 2 C0 1.34 0 0.68 0 0 Z " fill="#AB9B9B" transform="translate(474,309)"/>
<path d="M0 0 C0.66 0 1.32 0 2 0 C2 0.66 2 1.32 2 2 C1.34 2 0.68 2 0 2 C0 1.34 0 0.68 0 0 Z " fill="#AB9B9B" transform="translate(424,309)"/>
<path d="M0 0 C0.66 0 1.32 0 2 0 C2 0.66 2 1.32 2 2 C1.34 2 0.68 2 0 2 C0 1.34 0 0.68 0 0 Z " fill="#AB9B9B" transform="translate(249,309)"/>
<path d="M0 0 C0.66 0 1.32 0 2 0 C2 0.66 2 1.32 2 2 C1.34 2 0.68 2 0 2 C0 1.34 0 0.68 0 0 Z " fill="#AB9B9B" transform="translate(224,309)"/>
<path d="M0 0 C0.66 0 1.32 0 2 0 C2 0.66 2 1.32 2 2 C1.34 2 0.68 2 0 2 C0 1.34 0 0.68 0 0 Z " fill="#AB9B9B" transform="translate(199,309)"/>
<path d="M0 0 C0.66 0 1.32 0 2 0 C2 0.66 2 1.32 2 2 C1.34 2 0.68 2 0 2 C0 1.34 0 0.68 0 0 Z " fill="#AB9B9B" transform="translate(174,309)"/>
<path d="M0 0 C0.66 0 1.32 0 2 0 C2 0.66 2 1.32 2 2 C1.34 2 0.68 2 0 2 C0 1.34 0 0.68 0 0 Z " fill="#AB9B9B" transform="translate(124,309)"/>
<path d="M0 0 C0.66 0 1.32 0 2 0 C2 0.66 2 1.32 2 2 C1.34 2 0.68 2 0 2 C0 1.34 0 0.68 0 0 Z " fill="#AB9B9B" transform="translate(49,309)"/>
<path d="M0 0 C0.66 0 1.32 0 2 0 C2 0.66 2 1.32 2 2 C1.34 2 0.68 2 0 2 C0 1.34 0 0.68 0 0 Z " fill="#AB9B9B" transform="translate(24,309)"/>
<path d="M0 0 C0.66 0 1.32 0 2 0 C2 0.66 2 1.32 2 2 C1.34 2 0.68 2 0 2 C0 1.34 0 0.68 0 0 Z " fill="#AB9B9B" transform="translate(549,284)"/>
<path d="M0 0 C0.66 0 1.32 0 2 0 C2 0.66 2 1.32 2 2 C1.34 2 0.68 2 0 2 C0 1.34 0 0.68 0 0 Z " fill="#AB9B9B" transform="translate(524,284)"/>
<path d="M0 0 C0.66 0 1.32 0 2 0 C2 0.66 2 1.32 2 2 C1.34 2 0.68 2 0 2 C0 1.34 0 0.68 0 0 Z " fill="#AB9B9B" transform="translate(399,284)"/>
<path d="M0 0 C0.66 0 1.32 0 2 0 C2 0.66 2 1.32 2 2 C1.34 2 0.68 2 0 2 C0 1.34 0 0.68 0 0 Z " fill="#AB9B9B" transform="translate(274,284)"/>
<path d="M0 0 C0.66 0 1.32 0 2 0 C2 0.66 2 1.32 2 2 C1.34 2 0.68 2 0 2 C0 1.34 0 0.68 0 0 Z " fill="#AB9B9B" transform="translate(199,284)"/>
<path d="M0 0 C0.66 0 1.32 0 2 0 C2 0.66 2 1.32 2 2 C1.34 2 0.68 2 0 2 C0 1.34 0 0.68 0 0 Z " fill="#AB9B9B" transform="translate(174,284)"/>
<path d="M0 0 C0.66 0 1.32 0 2 0 C2 0.66 2 1.32 2 2 C1.34 2 0.68 2 0 2 C0 1.34 0 0.68 0 0 Z " fill="#AB9B9B" transform="translate(99,284)"/>
<path d="M0 0 C0.66 0 1.32 0 2 0 C2 0.66 2 1.32 2 2 C1.34 2 0.68 2 0 2 C0 1.34 0 0.68 0 0 Z " fill="#AB9B9B" transform="translate(24,284)"/>
<path d="M0 0 C0.66 0 1.32 0 2 0 C2 0.66 2 1.32 2 2 C1.34 2 0.68 2 0 2 C0 1.34 0 0.68 0 0 Z " fill="#AB9B9B" transform="translate(549,259)"/>
<path d="M0 0 C0.66 0 1.32 0 2 0 C2 0.66 2 1.32 2 2 C1.34 2 0.68 2 0 2 C0 1.34 0 0.68 0 0 Z " fill="#AB9B9B" transform="translate(524,259)"/>
<path d="M0 0 C0.66 0 1.32 0 2 0 C2 0.66 2 1.32 2 2 C1.34 2 0.68 2 0 2 C0 1.34 0 0.68 0 0 Z " fill="#AB9B9B" transform="translate(499,259)"/>
<path d="M0 0 C0.66 0 1.32 0 2 0 C2 0.66 2 1.32 2 2 C1.34 2 0.68 2 0 2 C0 1.34 0 0.68 0 0 Z " fill="#AB9B9B" transform="translate(474,259)"/>
<path d="M0 0 C0.66 0 1.32 0 2 0 C2 0.66 2 1.32 2 2 C1.34 2 0.68 2 0 2 C0 1.34 0 0.68 0 0 Z " fill="#AB9B9B" transform="translate(449,259)"/>
<path d="M0 0 C0.66 0 1.32 0 2 0 C2 0.66 2 1.32 2 2 C1.34 2 0.68 2 0 2 C0 1.34 0 0.68 0 0 Z " fill="#AB9B9B" transform="translate(424,259)"/>
<path d="M0 0 C0.66 0 1.32 0 2 0 C2 0.66 2 1.32 2 2 C1.34 2 0.68 2 0 2 C0 1.34 0 0.68 0 0 Z " fill="#AB9B9B" transform="translate(399,259)"/>
<path d="M0 0 C0.66 0 1.32 0 2 0 C2 0.66 2 1.32 2 2 C1.34 2 0.68 2 0 2 C0 1.34 0 0.68 0 0 Z " fill="#AB9B9B" transform="translate(374,259)"/>
<path d="M0 0 C0.66 0 1.32 0 2 0 C2 0.66 2 1.32 2 2 C1.34 2 0.68 2 0 2 C0 1.34 0 0.68 0 0 Z " fill="#AB9B9B" transform="translate(349,259)"/>
<path d="M0 0 C0.66 0 1.32 0 2 0 C2 0.66 2 1.32 2 2 C1.34 2 0.68 2 0 2 C0 1.34 0 0.68 0 0 Z " fill="#AB9B9B" transform="translate(324,259)"/>
<path d="M0 0 C0.66 0 1.32 0 2 0 C2 0.66 2 1.32 2 2 C1.34 2 0.68 2 0 2 C0 1.34 0 0.68 0 0 Z " fill="#AB9B9B" transform="translate(299,259)"/>
<path d="M0 0 C0.66 0 1.32 0 2 0 C2 0.66 2 1.32 2 2 C1.34 2 0.68 2 0 2 C0 1.34 0 0.68 0 0 Z " fill="#AB9B9B" transform="translate(274,259)"/>
<path d="M0 0 C0.66 0 1.32 0 2 0 C2 0.66 2 1.32 2 2 C1.34 2 0.68 2 0 2 C0 1.34 0 0.68 0 0 Z " fill="#AB9B9B" transform="translate(249,259)"/>
<path d="M0 0 C0.66 0 1.32 0 2 0 C2 0.66 2 1.32 2 2 C1.34 2 0.68 2 0 2 C0 1.34 0 0.68 0 0 Z " fill="#AB9B9B" transform="translate(224,259)"/>
<path d="M0 0 C0.66 0 1.32 0 2 0 C2 0.66 2 1.32 2 2 C1.34 2 0.68 2 0 2 C0 1.34 0 0.68 0 0 Z " fill="#AB9B9B" transform="translate(199,259)"/>
<path d="M0 0 C0.66 0 1.32 0 2 0 C2 0.66 2 1.32 2 2 C1.34 2 0.68 2 0 2 C0 1.34 0 0.68 0 0 Z " fill="#AB9B9B" transform="translate(174,259)"/>
<path d="M0 0 C0.66 0 1.32 0 2 0 C2 0.66 2 1.32 2 2 C1.34 2 0.68 2 0 2 C0 1.34 0 0.68 0 0 Z " fill="#AB9B9B" transform="translate(149,259)"/>
<path d="M0 0 C0.66 0 1.32 0 2 0 C2 0.66 2 1.32 2 2 C1.34 2 0.68 2 0 2 C0 1.34 0 0.68 0 0 Z " fill="#AB9B9B" transform="translate(124,259)"/>
<path d="M0 0 C0.66 0 1.32 0 2 0 C2 0.66 2 1.32 2 2 C1.34 2 0.68 2 0 2 C0 1.34 0 0.68 0 0 Z " fill="#AB9B9B" transform="translate(99,259)"/>
<path d="M0 0 C0.66 0 1.32 0 2 0 C2 0.66 2 1.32 2 2 C1.34 2 0.68 2 0 2 C0 1.34 0 0.68 0 0 Z " fill="#AB9B9B" transform="translate(74,259)"/>
<path d="M0 0 C0.66 0 1.32 0 2 0 C2 0.66 2 1.32 2 2 C1.34 2 0.68 2 0 2 C0 1.34 0 0.68 0 0 Z " fill="#AB9B9B" transform="translate(49,259)"/>
<path d="M0 0 C0.66 0 1.32 0 2 0 C2 0.66 2 1.32 2 2 C1.34 2 0.68 2 0 2 C0 1.34 0 0.68 0 0 Z " fill="#AB9B9B" transform="translate(24,259)"/>
<path d="M0 0 C0.66 0 1.32 0 2 0 C2 0.66 2 1.32 2 2 C1.34 2 0.68 2 0 2 C0 1.34 0 0.68 0 0 Z " fill="#AB9B9B" transform="translate(549,234)"/>
<path d="M0 0 C0.66 0 1.32 0 2 0 C2 0.66 2 1.32 2 2 C1.34 2 0.68 2 0 2 C0 1.34 0 0.68 0 0 Z " fill="#AB9B9B" transform="translate(524,234)"/>
<path d="M0 0 C0.66 0 1.32 0 2 0 C2 0.66 2 1.32 2 2 C1.34 2 0.68 2 0 2 C0 1.34 0 0.68 0 0 Z " fill="#AB9B9B" transform="translate(499,234)"/>
<path d="M0 0 C0.66 0 1.32 0 2 0 C2 0.66 2 1.32 2 2 C1.34 2 0.68 2 0 2 C0 1.34 0 0.68 0 0 Z " fill="#AB9B9B" transform="translate(474,234)"/>
<path d="M0 0 C0.66 0 1.32 0 2 0 C2 0.66 2 1.32 2 2 C1.34 2 0.68 2 0 2 C0 1.34 0 0.68 0 0 Z " fill="#AB9B9B" transform="translate(449,234)"/>
<path d="M0 0 C0.66 0 1.32 0 2 0 C2 0.66 2 1.32 2 2 C1.34 2 0.68 2 0 2 C0 1.34 0 0.68 0 0 Z " fill="#AB9B9B" transform="translate(424,234)"/>
<path d="M0 0 C0.66 0 1.32 0 2 0 C2 0.66 2 1.32 2 2 C1.34 2 0.68 2 0 2 C0 1.34 0 0.68 0 0 Z " fill="#AB9B9B" transform="translate(399,234)"/>
<path d="M0 0 C0.66 0 1.32 0 2 0 C2 0.66 2 1.32 2 2 C1.34 2 0.68 2 0 2 C0 1.34 0 0.68 0 0 Z " fill="#AB9B9B" transform="translate(374,234)"/>
<path d="M0 0 C0.66 0 1.32 0 2 0 C2 0.66 2 1.32 2 2 C1.34 2 0.68 2 0 2 C0 1.34 0 0.68 0 0 Z " fill="#AB9B9B" transform="translate(349,234)"/>
<path d="M0 0 C0.66 0 1.32 0 2 0 C2 0.66 2 1.32 2 2 C1.34 2 0.68 2 0 2 C0 1.34 0 0.68 0 0 Z " fill="#AB9B9B" transform="translate(324,234)"/>
<path d="M0 0 C0.66 0 1.32 0 2 0 C2 0.66 2 1.32 2 2 C1.34 2 0.68 2 0 2 C0 1.34 0 0.68 0 0 Z " fill="#AB9B9B" transform="translate(299,234)"/>
<path d="M0 0 C0.66 0 1.32 0 2 0 C2 0.66 2 1.32 2 2 C1.34 2 0.68 2 0 2 C0 1.34 0 0.68 0 0 Z " fill="#AB9B9B" transform="translate(274,234)"/>
<path d="M0 0 C0.66 0 1.32 0 2 0 C2 0.66 2 1.32 2 2 C1.34 2 0.68 2 0 2 C0 1.34 0 0.68 0 0 Z " fill="#AB9B9B" transform="translate(249,234)"/>
<path d="M0 0 C0.66 0 1.32 0 2 0 C2 0.66 2 1.32 2 2 C1.34 2 0.68 2 0 2 C0 1.34 0 0.68 0 0 Z " fill="#AB9B9B" transform="translate(224,234)"/>
<path d="M0 0 C0.66 0 1.32 0 2 0 C2 0.66 2 1.32 2 2 C1.34 2 0.68 2 0 2 C0 1.34 0 0.68 0 0 Z " fill="#AB9B9B" transform="translate(199,234)"/>
<path d="M0 0 C0.66 0 1.32 0 2 0 C2 0.66 2 1.32 2 2 C1.34 2 0.68 2 0 2 C0 1.34 0 0.68 0 0 Z " fill="#AB9B9B" transform="translate(174,234)"/>
<path d="M0 0 C0.66 0 1.32 0 2 0 C2 0.66 2 1.32 2 2 C1.34 2 0.68 2 0 2 C0 1.34 0 0.68 0 0 Z " fill="#AB9B9B" transform="translate(149,234)"/>
<path d="M0 0 C0.66 0 1.32 0 2 0 C2 0.66 2 1.32 2 2 C1.34 2 0.68 2 0 2 C0 1.34 0 0.68 0 0 Z " fill="#AB9B9B" transform="translate(124,234)"/>
<path d="M0 0 C0.66 0 1.32 0 2 0 C2 0.66 2 1.32 2 2 C1.34 2 0.68 2 0 2 C0 1.34 0 0.68 0 0 Z " fill="#AB9B9B" transform="translate(99,234)"/>
<path d="M0 0 C0.66 0 1.32 0 2 0 C2 0.66 2 1.32 2 2 C1.34 2 0.68 2 0 2 C0 1.34 0 0.68 0 0 Z " fill="#AB9B9B" transform="translate(74,234)"/>
<path d="M0 0 C0.66 0 1.32 0 2 0 C2 0.66 2 1.32 2 2 C1.34 2 0.68 2 0 2 C0 1.34 0 0.68 0 0 Z " fill="#AB9B9B" transform="translate(49,234)"/>
<path d="M0 0 C0.66 0 1.32 0 2 0 C2 0.66 2 1.32 2 2 C1.34 2 0.68 2 0 2 C0 1.34 0 0.68 0 0 Z " fill="#AB9B9B" transform="translate(24,234)"/>
<path d="M0 0 C0.66 0 1.32 0 2 0 C2 0.66 2 1.32 2 2 C1.34 2 0.68 2 0 2 C0 1.34 0 0.68 0 0 Z " fill="#AB9B9B" transform="translate(549,209)"/>
<path d="M0 0 C0.66 0 1.32 0 2 0 C2 0.66 2 1.32 2 2 C1.34 2 0.68 2 0 2 C0 1.34 0 0.68 0 0 Z " fill="#AB9B9B" transform="translate(524,209)"/>
<path d="M0 0 C0.66 0 1.32 0 2 0 C2 0.66 2 1.32 2 2 C1.34 2 0.68 2 0 2 C0 1.34 0 0.68 0 0 Z " fill="#AB9B9B" transform="translate(499,209)"/>
<path d="M0 0 C0.66 0 1.32 0 2 0 C2 0.66 2 1.32 2 2 C1.34 2 0.68 2 0 2 C0 1.34 0 0.68 0 0 Z " fill="#AB9B9B" transform="translate(474,209)"/>
<path d="M0 0 C0.66 0 1.32 0 2 0 C2 0.66 2 1.32 2 2 C1.34 2 0.68 2 0 2 C0 1.34 0 0.68 0 0 Z " fill="#AB9B9B" transform="translate(449,209)"/>
<path d="M0 0 C0.66 0 1.32 0 2 0 C2 0.66 2 1.32 2 2 C1.34 2 0.68 2 0 2 C0 1.34 0 0.68 0 0 Z " fill="#AB9B9B" transform="translate(424,209)"/>
<path d="M0 0 C0.66 0 1.32 0 2 0 C2 0.66 2 1.32 2 2 C1.34 2 0.68 2 0 2 C0 1.34 0 0.68 0 0 Z " fill="#AB9B9B" transform="translate(399,209)"/>
<path d="M0 0 C0.66 0 1.32 0 2 0 C2 0.66 2 1.32 2 2 C1.34 2 0.68 2 0 2 C0 1.34 0 0.68 0 0 Z " fill="#AB9B9B" transform="translate(374,209)"/>
<path d="M0 0 C0.66 0 1.32 0 2 0 C2 0.66 2 1.32 2 2 C1.34 2 0.68 2 0 2 C0 1.34 0 0.68 0 0 Z " fill="#AB9B9B" transform="translate(349,209)"/>
<path d="M0 0 C0.66 0 1.32 0 2 0 C2 0.66 2 1.32 2 2 C1.34 2 0.68 2 0 2 C0 1.34 0 0.68 0 0 Z " fill="#AB9B9B" transform="translate(199,209)"/>
<path d="M0 0 C0.66 0 1.32 0 2 0 C2 0.66 2 1.32 2 2 C1.34 2 0.68 2 0 2 C0 1.34 0 0.68 0 0 Z " fill="#AB9B9B" transform="translate(174,209)"/>
<path d="M0 0 C0.66 0 1.32 0 2 0 C2 0.66 2 1.32 2 2 C1.34 2 0.68 2 0 2 C0 1.34 0 0.68 0 0 Z " fill="#AB9B9B" transform="translate(149,209)"/>
<path d="M0 0 C0.66 0 1.32 0 2 0 C2 0.66 2 1.32 2 2 C1.34 2 0.68 2 0 2 C0 1.34 0 0.68 0 0 Z " fill="#AB9B9B" transform="translate(124,209)"/>
<path d="M0 0 C0.66 0 1.32 0 2 0 C2 0.66 2 1.32 2 2 C1.34 2 0.68 2 0 2 C0 1.34 0 0.68 0 0 Z " fill="#AB9B9B" transform="translate(99,209)"/>
<path d="M0 0 C0.66 0 1.32 0 2 0 C2 0.66 2 1.32 2 2 C1.34 2 0.68 2 0 2 C0 1.34 0 0.68 0 0 Z " fill="#AB9B9B" transform="translate(74,209)"/>
<path d="M0 0 C0.66 0 1.32 0 2 0 C2 0.66 2 1.32 2 2 C1.34 2 0.68 2 0 2 C0 1.34 0 0.68 0 0 Z " fill="#AB9B9B" transform="translate(49,209)"/>
<path d="M0 0 C0.66 0 1.32 0 2 0 C2 0.66 2 1.32 2 2 C1.34 2 0.68 2 0 2 C0 1.34 0 0.68 0 0 Z " fill="#AB9B9B" transform="translate(24,209)"/>
<path d="M0 0 C0.66 0 1.32 0 2 0 C2 0.66 2 1.32 2 2 C1.34 2 0.68 2 0 2 C0 1.34 0 0.68 0 0 Z " fill="#AB9B9B" transform="translate(549,184)"/>
<path d="M0 0 C0.66 0 1.32 0 2 0 C2 0.66 2 1.32 2 2 C1.34 2 0.68 2 0 2 C0 1.34 0 0.68 0 0 Z " fill="#AB9B9B" transform="translate(524,184)"/>
<path d="M0 0 C0.66 0 1.32 0 2 0 C2 0.66 2 1.32 2 2 C1.34 2 0.68 2 0 2 C0 1.34 0 0.68 0 0 Z " fill="#AB9B9B" transform="translate(499,184)"/>
<path d="M0 0 C0.66 0 1.32 0 2 0 C2 0.66 2 1.32 2 2 C1.34 2 0.68 2 0 2 C0 1.34 0 0.68 0 0 Z " fill="#AB9B9B" transform="translate(474,184)"/>
<path d="M0 0 C0.66 0 1.32 0 2 0 C2 0.66 2 1.32 2 2 C1.34 2 0.68 2 0 2 C0 1.34 0 0.68 0 0 Z " fill="#AB9B9B" transform="translate(449,184)"/>
<path d="M0 0 C0.66 0 1.32 0 2 0 C2 0.66 2 1.32 2 2 C1.34 2 0.68 2 0 2 C0 1.34 0 0.68 0 0 Z " fill="#AB9B9B" transform="translate(424,184)"/>
<path d="M0 0 C0.66 0 1.32 0 2 0 C2 0.66 2 1.32 2 2 C1.34 2 0.68 2 0 2 C0 1.34 0 0.68 0 0 Z " fill="#AB9B9B" transform="translate(399,184)"/>
<path d="M0 0 C0.66 0 1.32 0 2 0 C2 0.66 2 1.32 2 2 C1.34 2 0.68 2 0 2 C0 1.34 0 0.68 0 0 Z " fill="#AB9B9B" transform="translate(374,184)"/>
<path d="M0 0 C0.66 0 1.32 0 2 0 C2 0.66 2 1.32 2 2 C1.34 2 0.68 2 0 2 C0 1.34 0 0.68 0 0 Z " fill="#AB9B9B" transform="translate(349,184)"/>
<path d="M0 0 C0.66 0 1.32 0 2 0 C2 0.66 2 1.32 2 2 C1.34 2 0.68 2 0 2 C0 1.34 0 0.68 0 0 Z " fill="#AB9B9B" transform="translate(199,184)"/>
<path d="M0 0 C0.66 0 1.32 0 2 0 C2 0.66 2 1.32 2 2 C1.34 2 0.68 2 0 2 C0 1.34 0 0.68 0 0 Z " fill="#AB9B9B" transform="translate(174,184)"/>
<path d="M0 0 C0.66 0 1.32 0 2 0 C2 0.66 2 1.32 2 2 C1.34 2 0.68 2 0 2 C0 1.34 0 0.68 0 0 Z " fill="#AB9B9B" transform="translate(149,184)"/>
<path d="M0 0 C0.66 0 1.32 0 2 0 C2 0.66 2 1.32 2 2 C1.34 2 0.68 2 0 2 C0 1.34 0 0.68 0 0 Z " fill="#AB9B9B" transform="translate(124,184)"/>
<path d="M0 0 C0.66 0 1.32 0 2 0 C2 0.66 2 1.32 2 2 C1.34 2 0.68 2 0 2 C0 1.34 0 0.68 0 0 Z " fill="#AB9B9B" transform="translate(99,184)"/>
<path d="M0 0 C0.66 0 1.32 0 2 0 C2 0.66 2 1.32 2 2 C1.34 2 0.68 2 0 2 C0 1.34 0 0.68 0 0 Z " fill="#AB9B9B" transform="translate(74,184)"/>
<path d="M0 0 C0.66 0 1.32 0 2 0 C2 0.66 2 1.32 2 2 C1.34 2 0.68 2 0 2 C0 1.34 0 0.68 0 0 Z " fill="#AB9B9B" transform="translate(49,184)"/>
<path d="M0 0 C0.66 0 1.32 0 2 0 C2 0.66 2 1.32 2 2 C1.34 2 0.68 2 0 2 C0 1.34 0 0.68 0 0 Z " fill="#AB9B9B" transform="translate(24,184)"/>
<path d="M0 0 C0.66 0 1.32 0 2 0 C2 0.66 2 1.32 2 2 C1.34 2 0.68 2 0 2 C0 1.34 0 0.68 0 0 Z " fill="#AB9B9B" transform="translate(549,159)"/>
<path d="M0 0 C0.66 0 1.32 0 2 0 C2 0.66 2 1.32 2 2 C1.34 2 0.68 2 0 2 C0 1.34 0 0.68 0 0 Z " fill="#AB9B9B" transform="translate(524,159)"/>
<path d="M0 0 C0.66 0 1.32 0 2 0 C2 0.66 2 1.32 2 2 C1.34 2 0.68 2 0 2 C0 1.34 0 0.68 0 0 Z " fill="#AB9B9B" transform="translate(499,159)"/>
<path d="M0 0 C0.66 0 1.32 0 2 0 C2 0.66 2 1.32 2 2 C1.34 2 0.68 2 0 2 C0 1.34 0 0.68 0 0 Z " fill="#AB9B9B" transform="translate(474,159)"/>
<path d="M0 0 C0.66 0 1.32 0 2 0 C2 0.66 2 1.32 2 2 C1.34 2 0.68 2 0 2 C0 1.34 0 0.68 0 0 Z " fill="#AB9B9B" transform="translate(449,159)"/>
<path d="M0 0 C0.66 0 1.32 0 2 0 C2 0.66 2 1.32 2 2 C1.34 2 0.68 2 0 2 C0 1.34 0 0.68 0 0 Z " fill="#AB9B9B" transform="translate(424,159)"/>
<path d="M0 0 C0.66 0 1.32 0 2 0 C2 0.66 2 1.32 2 2 C1.34 2 0.68 2 0 2 C0 1.34 0 0.68 0 0 Z " fill="#AB9B9B" transform="translate(399,159)"/>
<path d="M0 0 C0.66 0 1.32 0 2 0 C2 0.66 2 1.32 2 2 C1.34 2 0.68 2 0 2 C0 1.34 0 0.68 0 0 Z " fill="#AB9B9B" transform="translate(374,159)"/>
<path d="M0 0 C0.66 0 1.32 0 2 0 C2 0.66 2 1.32 2 2 C1.34 2 0.68 2 0 2 C0 1.34 0 0.68 0 0 Z " fill="#AB9B9B" transform="translate(324,159)"/>
<path d="M0 0 C0.66 0 1.32 0 2 0 C2 0.66 2 1.32 2 2 C1.34 2 0.68 2 0 2 C0 1.34 0 0.68 0 0 Z " fill="#AB9B9B" transform="translate(174,159)"/>
<path d="M0 0 C0.66 0 1.32 0 2 0 C2 0.66 2 1.32 2 2 C1.34 2 0.68 2 0 2 C0 1.34 0 0.68 0 0 Z " fill="#AB9B9B" transform="translate(149,159)"/>
<path d="M0 0 C0.66 0 1.32 0 2 0 C2 0.66 2 1.32 2 2 C1.34 2 0.68 2 0 2 C0 1.34 0 0.68 0 0 Z " fill="#AB9B9B" transform="translate(124,159)"/>
<path d="M0 0 C0.66 0 1.32 0 2 0 C2 0.66 2 1.32 2 2 C1.34 2 0.68 2 0 2 C0 1.34 0 0.68 0 0 Z " fill="#AB9B9B" transform="translate(99,159)"/>
<path d="M0 0 C0.66 0 1.32 0 2 0 C2 0.66 2 1.32 2 2 C1.34 2 0.68 2 0 2 C0 1.34 0 0.68 0 0 Z " fill="#AB9B9B" transform="translate(74,159)"/>
<path d="M0 0 C0.66 0 1.32 0 2 0 C2 0.66 2 1.32 2 2 C1.34 2 0.68 2 0 2 C0 1.34 0 0.68 0 0 Z " fill="#AB9B9B" transform="translate(49,159)"/>
<path d="M0 0 C0.66 0 1.32 0 2 0 C2 0.66 2 1.32 2 2 C1.34 2 0.68 2 0 2 C0 1.34 0 0.68 0 0 Z " fill="#AB9B9B" transform="translate(24,159)"/>
<path d="M0 0 C0.66 0 1.32 0 2 0 C2 0.66 2 1.32 2 2 C1.34 2 0.68 2 0 2 C0 1.34 0 0.68 0 0 Z " fill="#AB9B9B" transform="translate(549,134)"/>
<path d="M0 0 C0.66 0 1.32 0 2 0 C2 0.66 2 1.32 2 2 C1.34 2 0.68 2 0 2 C0 1.34 0 0.68 0 0 Z " fill="#AB9B9B" transform="translate(524,134)"/>
<path d="M0 0 C0.66 0 1.32 0 2 0 C2 0.66 2 1.32 2 2 C1.34 2 0.68 2 0 2 C0 1.34 0 0.68 0 0 Z " fill="#AB9B9B" transform="translate(499,134)"/>
<path d="M0 0 C0.66 0 1.32 0 2 0 C2 0.66 2 1.32 2 2 C1.34 2 0.68 2 0 2 C0 1.34 0 0.68 0 0 Z " fill="#AB9B9B" transform="translate(474,134)"/>
<path d="M0 0 C0.66 0 1.32 0 2 0 C2 0.66 2 1.32 2 2 C1.34 2 0.68 2 0 2 C0 1.34 0 0.68 0 0 Z " fill="#AB9B9B" transform="translate(449,134)"/>
<path d="M0 0 C0.66 0 1.32 0 2 0 C2 0.66 2 1.32 2 2 C1.34 2 0.68 2 0 2 C0 1.34 0 0.68 0 0 Z " fill="#AB9B9B" transform="translate(424,134)"/>
<path d="M0 0 C0.66 0 1.32 0 2 0 C2 0.66 2 1.32 2 2 C1.34 2 0.68 2 0 2 C0 1.34 0 0.68 0 0 Z " fill="#AB9B9B" transform="translate(399,134)"/>
<path d="M0 0 C0.66 0 1.32 0 2 0 C2 0.66 2 1.32 2 2 C1.34 2 0.68 2 0 2 C0 1.34 0 0.68 0 0 Z " fill="#AB9B9B" transform="translate(249,134)"/>
<path d="M0 0 C0.66 0 1.32 0 2 0 C2 0.66 2 1.32 2 2 C1.34 2 0.68 2 0 2 C0 1.34 0 0.68 0 0 Z " fill="#AB9B9B" transform="translate(174,134)"/>
<path d="M0 0 C0.66 0 1.32 0 2 0 C2 0.66 2 1.32 2 2 C1.34 2 0.68 2 0 2 C0 1.34 0 0.68 0 0 Z " fill="#AB9B9B" transform="translate(149,134)"/>
<path d="M0 0 C0.66 0 1.32 0 2 0 C2 0.66 2 1.32 2 2 C1.34 2 0.68 2 0 2 C0 1.34 0 0.68 0 0 Z " fill="#AB9B9B" transform="translate(124,134)"/>
<path d="M0 0 C0.66 0 1.32 0 2 0 C2 0.66 2 1.32 2 2 C1.34 2 0.68 2 0 2 C0 1.34 0 0.68 0 0 Z " fill="#AB9B9B" transform="translate(99,134)"/>
<path d="M0 0 C0.66 0 1.32 0 2 0 C2 0.66 2 1.32 2 2 C1.34 2 0.68 2 0 2 C0 1.34 0 0.68 0 0 Z " fill="#AB9B9B" transform="translate(74,134)"/>
<path d="M0 0 C0.66 0 1.32 0 2 0 C2 0.66 2 1.32 2 2 C1.34 2 0.68 2 0 2 C0 1.34 0 0.68 0 0 Z " fill="#AB9B9B" transform="translate(49,134)"/>
<path d="M0 0 C0.66 0 1.32 0 2 0 C2 0.66 2 1.32 2 2 C1.34 2 0.68 2 0 2 C0 1.34 0 0.68 0 0 Z " fill="#AB9B9B" transform="translate(24,134)"/>
<path d="M0 0 C0.66 0 1.32 0 2 0 C2 0.66 2 1.32 2 2 C1.34 2 0.68 2 0 2 C0 1.34 0 0.68 0 0 Z " fill="#AB9B9B" transform="translate(549,109)"/>
<path d="M0 0 C0.66 0 1.32 0 2 0 C2 0.66 2 1.32 2 2 C1.34 2 0.68 2 0 2 C0 1.34 0 0.68 0 0 Z " fill="#AB9B9B" transform="translate(524,109)"/>
<path d="M0 0 C0.66 0 1.32 0 2 0 C2 0.66 2 1.32 2 2 C1.34 2 0.68 2 0 2 C0 1.34 0 0.68 0 0 Z " fill="#AB9B9B" transform="translate(499,109)"/>
<path d="M0 0 C0.66 0 1.32 0 2 0 C2 0.66 2 1.32 2 2 C1.34 2 0.68 2 0 2 C0 1.34 0 0.68 0 0 Z " fill="#AB9B9B" transform="translate(474,109)"/>
<path d="M0 0 C0.66 0 1.32 0 2 0 C2 0.66 2 1.32 2 2 C1.34 2 0.68 2 0 2 C0 1.34 0 0.68 0 0 Z " fill="#AB9B9B" transform="translate(449,109)"/>
<path d="M0 0 C0.66 0 1.32 0 2 0 C2 0.66 2 1.32 2 2 C1.34 2 0.68 2 0 2 C0 1.34 0 0.68 0 0 Z " fill="#AB9B9B" transform="translate(424,109)"/>
<path d="M0 0 C0.66 0 1.32 0 2 0 C2 0.66 2 1.32 2 2 C1.34 2 0.68 2 0 2 C0 1.34 0 0.68 0 0 Z " fill="#AB9B9B" transform="translate(399,109)"/>
<path d="M0 0 C0.66 0 1.32 0 2 0 C2 0.66 2 1.32 2 2 C1.34 2 0.68 2 0 2 C0 1.34 0 0.68 0 0 Z " fill="#AB9B9B" transform="translate(374,109)"/>
<path d="M0 0 C0.66 0 1.32 0 2 0 C2 0.66 2 1.32 2 2 C1.34 2 0.68 2 0 2 C0 1.34 0 0.68 0 0 Z " fill="#AB9B9B" transform="translate(274,109)"/>
<path d="M0 0 C0.66 0 1.32 0 2 0 C2 0.66 2 1.32 2 2 C1.34 2 0.68 2 0 2 C0 1.34 0 0.68 0 0 Z " fill="#AB9B9B" transform="translate(174,109)"/>
<path d="M0 0 C0.66 0 1.32 0 2 0 C2 0.66 2 1.32 2 2 C1.34 2 0.68 2 0 2 C0 1.34 0 0.68 0 0 Z " fill="#AB9B9B" transform="translate(149,109)"/>
<path d="M0 0 C0.66 0 1.32 0 2 0 C2 0.66 2 1.32 2 2 C1.34 2 0.68 2 0 2 C0 1.34 0 0.68 0 0 Z " fill="#AB9B9B" transform="translate(124,109)"/>
<path d="M0 0 C0.66 0 1.32 0 2 0 C2 0.66 2 1.32 2 2 C1.34 2 0.68 2 0 2 C0 1.34 0 0.68 0 0 Z " fill="#AB9B9B" transform="translate(99,109)"/>
<path d="M0 0 C0.66 0 1.32 0 2 0 C2 0.66 2 1.32 2 2 C1.34 2 0.68 2 0 2 C0 1.34 0 0.68 0 0 Z " fill="#AB9B9B" transform="translate(74,109)"/>
<path d="M0 0 C0.66 0 1.32 0 2 0 C2 0.66 2 1.32 2 2 C1.34 2 0.68 2 0 2 C0 1.34 0 0.68 0 0 Z " fill="#AB9B9B" transform="translate(49,109)"/>
<path d="M0 0 C0.66 0 1.32 0 2 0 C2 0.66 2 1.32 2 2 C1.34 2 0.68 2 0 2 C0 1.34 0 0.68 0 0 Z " fill="#AB9B9B" transform="translate(24,109)"/>
<path d="M0 0 C0.66 0 1.32 0 2 0 C2 0.66 2 1.32 2 2 C1.34 2 0.68 2 0 2 C0 1.34 0 0.68 0 0 Z " fill="#AB9B9B" transform="translate(549,84)"/>
<path d="M0 0 C0.66 0 1.32 0 2 0 C2 0.66 2 1.32 2 2 C1.34 2 0.68 2 0 2 C0 1.34 0 0.68 0 0 Z " fill="#AB9B9B" transform="translate(524,84)"/>
<path d="M0 0 C0.66 0 1.32 0 2 0 C2 0.66 2 1.32 2 2 C1.34 2 0.68 2 0 2 C0 1.34 0 0.68 0 0 Z " fill="#AB9B9B" transform="translate(499,84)"/>
<path d="M0 0 C0.66 0 1.32 0 2 0 C2 0.66 2 1.32 2 2 C1.34 2 0.68 2 0 2 C0 1.34 0 0.68 0 0 Z " fill="#AB9B9B" transform="translate(474,84)"/>
<path d="M0 0 C0.66 0 1.32 0 2 0 C2 0.66 2 1.32 2 2 C1.34 2 0.68 2 0 2 C0 1.34 0 0.68 0 0 Z " fill="#AB9B9B" transform="translate(449,84)"/>
<path d="M0 0 C0.66 0 1.32 0 2 0 C2 0.66 2 1.32 2 2 C1.34 2 0.68 2 0 2 C0 1.34 0 0.68 0 0 Z " fill="#AB9B9B" transform="translate(424,84)"/>
<path d="M0 0 C0.66 0 1.32 0 2 0 C2 0.66 2 1.32 2 2 C1.34 2 0.68 2 0 2 C0 1.34 0 0.68 0 0 Z " fill="#AB9B9B" transform="translate(399,84)"/>
<path d="M0 0 C0.66 0 1.32 0 2 0 C2 0.66 2 1.32 2 2 C1.34 2 0.68 2 0 2 C0 1.34 0 0.68 0 0 Z " fill="#AB9B9B" transform="translate(374,84)"/>
<path d="M0 0 C0.66 0 1.32 0 2 0 C2 0.66 2 1.32 2 2 C1.34 2 0.68 2 0 2 C0 1.34 0 0.68 0 0 Z " fill="#AB9B9B" transform="translate(349,84)"/>
<path d="M0 0 C0.66 0 1.32 0 2 0 C2 0.66 2 1.32 2 2 C1.34 2 0.68 2 0 2 C0 1.34 0 0.68 0 0 Z " fill="#AB9B9B" transform="translate(274,84)"/>
<path d="M0 0 C0.66 0 1.32 0 2 0 C2 0.66 2 1.32 2 2 C1.34 2 0.68 2 0 2 C0 1.34 0 0.68 0 0 Z " fill="#AB9B9B" transform="translate(199,84)"/>
<path d="M0 0 C0.66 0 1.32 0 2 0 C2 0.66 2 1.32 2 2 C1.34 2 0.68 2 0 2 C0 1.34 0 0.68 0 0 Z " fill="#AB9B9B" transform="translate(174,84)"/>
<path d="M0 0 C0.66 0 1.32 0 2 0 C2 0.66 2 1.32 2 2 C1.34 2 0.68 2 0 2 C0 1.34 0 0.68 0 0 Z " fill="#AB9B9B" transform="translate(149,84)"/>
<path d="M0 0 C0.66 0 1.32 0 2 0 C2 0.66 2 1.32 2 2 C1.34 2 0.68 2 0 2 C0 1.34 0 0.68 0 0 Z " fill="#AB9B9B" transform="translate(124,84)"/>
<path d="M0 0 C0.66 0 1.32 0 2 0 C2 0.66 2 1.32 2 2 C1.34 2 0.68 2 0 2 C0 1.34 0 0.68 0 0 Z " fill="#AB9B9B" transform="translate(99,84)"/>
<path d="M0 0 C0.66 0 1.32 0 2 0 C2 0.66 2 1.32 2 2 C1.34 2 0.68 2 0 2 C0 1.34 0 0.68 0 0 Z " fill="#AB9B9B" transform="translate(74,84)"/>
<path d="M0 0 C0.66 0 1.32 0 2 0 C2 0.66 2 1.32 2 2 C1.34 2 0.68 2 0 2 C0 1.34 0 0.68 0 0 Z " fill="#AB9B9B" transform="translate(49,84)"/>
<path d="M0 0 C0.66 0 1.32 0 2 0 C2 0.66 2 1.32 2 2 C1.34 2 0.68 2 0 2 C0 1.34 0 0.68 0 0 Z " fill="#AB9B9B" transform="translate(24,84)"/>
<path d="M0 0 C0.66 0 1.32 0 2 0 C2 0.66 2 1.32 2 2 C1.34 2 0.68 2 0 2 C0 1.34 0 0.68 0 0 Z " fill="#AB9B9B" transform="translate(549,59)"/>
<path d="M0 0 C0.66 0 1.32 0 2 0 C2 0.66 2 1.32 2 2 C1.34 2 0.68 2 0 2 C0 1.34 0 0.68 0 0 Z " fill="#AB9B9B" transform="translate(524,59)"/>
<path d="M0 0 C0.66 0 1.32 0 2 0 C2 0.66 2 1.32 2 2 C1.34 2 0.68 2 0 2 C0 1.34 0 0.68 0 0 Z " fill="#AB9B9B" transform="translate(499,59)"/>
<path d="M0 0 C0.66 0 1.32 0 2 0 C2 0.66 2 1.32 2 2 C1.34 2 0.68 2 0 2 C0 1.34 0 0.68 0 0 Z " fill="#AB9B9B" transform="translate(474,59)"/>
<path d="M0 0 C0.66 0 1.32 0 2 0 C2 0.66 2 1.32 2 2 C1.34 2 0.68 2 0 2 C0 1.34 0 0.68 0 0 Z " fill="#AB9B9B" transform="translate(449,59)"/>
<path d="M0 0 C0.66 0 1.32 0 2 0 C2 0.66 2 1.32 2 2 C1.34 2 0.68 2 0 2 C0 1.34 0 0.68 0 0 Z " fill="#AB9B9B" transform="translate(424,59)"/>
<path d="M0 0 C0.66 0 1.32 0 2 0 C2 0.66 2 1.32 2 2 C1.34 2 0.68 2 0 2 C0 1.34 0 0.68 0 0 Z " fill="#AB9B9B" transform="translate(399,59)"/>
<path d="M0 0 C0.66 0 1.32 0 2 0 C2 0.66 2 1.32 2 2 C1.34 2 0.68 2 0 2 C0 1.34 0 0.68 0 0 Z " fill="#AB9B9B" transform="translate(374,59)"/>
<path d="M0 0 C0.66 0 1.32 0 2 0 C2 0.66 2 1.32 2 2 C1.34 2 0.68 2 0 2 C0 1.34 0 0.68 0 0 Z " fill="#AB9B9B" transform="translate(349,59)"/>
<path d="M0 0 C0.66 0 1.32 0 2 0 C2 0.66 2 1.32 2 2 C1.34 2 0.68 2 0 2 C0 1.34 0 0.68 0 0 Z " fill="#AB9B9B" transform="translate(324,59)"/>
<path d="M0 0 C0.66 0 1.32 0 2 0 C2 0.66 2 1.32 2 2 C1.34 2 0.68 2 0 2 C0 1.34 0 0.68 0 0 Z " fill="#AB9B9B" transform="translate(274,59)"/>
<path d="M0 0 C0.66 0 1.32 0 2 0 C2 0.66 2 1.32 2 2 C1.34 2 0.68 2 0 2 C0 1.34 0 0.68 0 0 Z " fill="#AB9B9B" transform="translate(224,59)"/>
<path d="M0 0 C0.66 0 1.32 0 2 0 C2 0.66 2 1.32 2 2 C1.34 2 0.68 2 0 2 C0 1.34 0 0.68 0 0 Z " fill="#AB9B9B" transform="translate(199,59)"/>
<path d="M0 0 C0.66 0 1.32 0 2 0 C2 0.66 2 1.32 2 2 C1.34 2 0.68 2 0 2 C0 1.34 0 0.68 0 0 Z " fill="#AB9B9B" transform="translate(174,59)"/>
<path d="M0 0 C0.66 0 1.32 0 2 0 C2 0.66 2 1.32 2 2 C1.34 2 0.68 2 0 2 C0 1.34 0 0.68 0 0 Z " fill="#AB9B9B" transform="translate(149,59)"/>
<path d="M0 0 C0.66 0 1.32 0 2 0 C2 0.66 2 1.32 2 2 C1.34 2 0.68 2 0 2 C0 1.34 0 0.68 0 0 Z " fill="#AB9B9B" transform="translate(124,59)"/>
<path d="M0 0 C0.66 0 1.32 0 2 0 C2 0.66 2 1.32 2 2 C1.34 2 0.68 2 0 2 C0 1.34 0 0.68 0 0 Z " fill="#AB9B9B" transform="translate(99,59)"/>
<path d="M0 0 C0.66 0 1.32 0 2 0 C2 0.66 2 1.32 2 2 C1.34 2 0.68 2 0 2 C0 1.34 0 0.68 0 0 Z " fill="#AB9B9B" transform="translate(74,59)"/>
<path d="M0 0 C0.66 0 1.32 0 2 0 C2 0.66 2 1.32 2 2 C1.34 2 0.68 2 0 2 C0 1.34 0 0.68 0 0 Z " fill="#AB9B9B" transform="translate(49,59)"/>
<path d="M0 0 C0.66 0 1.32 0 2 0 C2 0.66 2 1.32 2 2 C1.34 2 0.68 2 0 2 C0 1.34 0 0.68 0 0 Z " fill="#AB9B9B" transform="translate(24,59)"/>
<path d="M0 0 C0.66 0 1.32 0 2 0 C2 0.66 2 1.32 2 2 C1.34 2 0.68 2 0 2 C0 1.34 0 0.68 0 0 Z " fill="#AB9B9B" transform="translate(549,34)"/>
<path d="M0 0 C0.66 0 1.32 0 2 0 C2 0.66 2 1.32 2 2 C1.34 2 0.68 2 0 2 C0 1.34 0 0.68 0 0 Z " fill="#AB9B9B" transform="translate(524,34)"/>
<path d="M0 0 C0.66 0 1.32 0 2 0 C2 0.66 2 1.32 2 2 C1.34 2 0.68 2 0 2 C0 1.34 0 0.68 0 0 Z " fill="#AB9B9B" transform="translate(499,34)"/>
<path d="M0 0 C0.66 0 1.32 0 2 0 C2 0.66 2 1.32 2 2 C1.34 2 0.68 2 0 2 C0 1.34 0 0.68 0 0 Z " fill="#AB9B9B" transform="translate(474,34)"/>
<path d="M0 0 C0.66 0 1.32 0 2 0 C2 0.66 2 1.32 2 2 C1.34 2 0.68 2 0 2 C0 1.34 0 0.68 0 0 Z " fill="#AB9B9B" transform="translate(449,34)"/>
<path d="M0 0 C0.66 0 1.32 0 2 0 C2 0.66 2 1.32 2 2 C1.34 2 0.68 2 0 2 C0 1.34 0 0.68 0 0 Z " fill="#AB9B9B" transform="translate(424,34)"/>
<path d="M0 0 C0.66 0 1.32 0 2 0 C2 0.66 2 1.32 2 2 C1.34 2 0.68 2 0 2 C0 1.34 0 0.68 0 0 Z " fill="#AB9B9B" transform="translate(399,34)"/>
<path d="M0 0 C0.66 0 1.32 0 2 0 C2 0.66 2 1.32 2 2 C1.34 2 0.68 2 0 2 C0 1.34 0 0.68 0 0 Z " fill="#AB9B9B" transform="translate(374,34)"/>
<path d="M0 0 C0.66 0 1.32 0 2 0 C2 0.66 2 1.32 2 2 C1.34 2 0.68 2 0 2 C0 1.34 0 0.68 0 0 Z " fill="#AB9B9B" transform="translate(349,34)"/>
<path d="M0 0 C0.66 0 1.32 0 2 0 C2 0.66 2 1.32 2 2 C1.34 2 0.68 2 0 2 C0 1.34 0 0.68 0 0 Z " fill="#AB9B9B" transform="translate(324,34)"/>
<path d="M0 0 C0.66 0 1.32 0 2 0 C2 0.66 2 1.32 2 2 C1.34 2 0.68 2 0 2 C0 1.34 0 0.68 0 0 Z " fill="#AB9B9B" transform="translate(299,34)"/>
<path d="M0 0 C0.66 0 1.32 0 2 0 C2 0.66 2 1.32 2 2 C1.34 2 0.68 2 0 2 C0 1.34 0 0.68 0 0 Z " fill="#AB9B9B" transform="translate(274,34)"/>
<path d="M0 0 C0.66 0 1.32 0 2 0 C2 0.66 2 1.32 2 2 C1.34 2 0.68 2 0 2 C0 1.34 0 0.68 0 0 Z " fill="#AB9B9B" transform="translate(249,34)"/>
<path d="M0 0 C0.66 0 1.32 0 2 0 C2 0.66 2 1.32 2 2 C1.34 2 0.68 2 0 2 C0 1.34 0 0.68 0 0 Z " fill="#AB9B9B" transform="translate(224,34)"/>
<path d="M0 0 C0.66 0 1.32 0 2 0 C2 0.66 2 1.32 2 2 C1.34 2 0.68 2 0 2 C0 1.34 0 0.68 0 0 Z " fill="#AB9B9B" transform="translate(199,34)"/>
<path d="M0 0 C0.66 0 1.32 0 2 0 C2 0.66 2 1.32 2 2 C1.34 2 0.68 2 0 2 C0 1.34 0 0.68 0 0 Z " fill="#AB9B9B" transform="translate(174,34)"/>
<path d="M0 0 C0.66 0 1.32 0 2 0 C2 0.66 2 1.32 2 2 C1.34 2 0.68 2 0 2 C0 1.34 0 0.68 0 0 Z " fill="#AB9B9B" transform="translate(149,34)"/>
<path d="M0 0 C0.66 0 1.32 0 2 0 C2 0.66 2 1.32 2 2 C1.34 2 0.68 2 0 2 C0 1.34 0 0.68 0 0 Z " fill="#AB9B9B" transform="translate(124,34)"/>
<path d="M0 0 C0.66 0 1.32 0 2 0 C2 0.66 2 1.32 2 2 C1.34 2 0.68 2 0 2 C0 1.34 0 0.68 0 0 Z " fill="#AB9B9B" transform="translate(99,34)"/>
<path d="M0 0 C0.66 0 1.32 0 2 0 C2 0.66 2 1.32 2 2 C1.34 2 0.68 2 0 2 C0 1.34 0 0.68 0 0 Z " fill="#AB9B9B" transform="translate(74,34)"/>
<path d="M0 0 C0.66 0 1.32 0 2 0 C2 0.66 2 1.32 2 2 C1.34 2 0.68 2 0 2 C0 1.34 0 0.68 0 0 Z " fill="#AB9B9B" transform="translate(49,34)"/>
<path d="M0 0 C0.66 0 1.32 0 2 0 C2 0.66 2 1.32 2 2 C1.34 2 0.68 2 0 2 C0 1.34 0 0.68 0 0 Z " fill="#AB9B9B" transform="translate(24,34)"/>
<path d="M0 0 C0.66 0 1.32 0 2 0 C2 0.66 2 1.32 2 2 C1.34 2 0.68 2 0 2 C0 1.34 0 0.68 0 0 Z " fill="#AB9B9B" transform="translate(549,9)"/>
<path d="M0 0 C0.66 0 1.32 0 2 0 C2 0.66 2 1.32 2 2 C1.34 2 0.68 2 0 2 C0 1.34 0 0.68 0 0 Z " fill="#AB9B9B" transform="translate(524,9)"/>
<path d="M0 0 C0.66 0 1.32 0 2 0 C2 0.66 2 1.32 2 2 C1.34 2 0.68 2 0 2 C0 1.34 0 0.68 0 0 Z " fill="#AB9B9B" transform="translate(499,9)"/>
<path d="M0 0 C0.66 0 1.32 0 2 0 C2 0.66 2 1.32 2 2 C1.34 2 0.68 2 0 2 C0 1.34 0 0.68 0 0 Z " fill="#AB9B9B" transform="translate(474,9)"/>
<path d="M0 0 C0.66 0 1.32 0 2 0 C2 0.66 2 1.32 2 2 C1.34 2 0.68 2 0 2 C0 1.34 0 0.68 0 0 Z " fill="#AB9B9B" transform="translate(449,9)"/>
<path d="M0 0 C0.66 0 1.32 0 2 0 C2 0.66 2 1.32 2 2 C1.34 2 0.68 2 0 2 C0 1.34 0 0.68 0 0 Z " fill="#AB9B9B" transform="translate(424,9)"/>
<path d="M0 0 C0.66 0 1.32 0 2 0 C2 0.66 2 1.32 2 2 C1.34 2 0.68 2 0 2 C0 1.34 0 0.68 0 0 Z " fill="#AB9B9B" transform="translate(399,9)"/>
<path d="M0 0 C0.66 0 1.32 0 2 0 C2 0.66 2 1.32 2 2 C1.34 2 0.68 2 0 2 C0 1.34 0 0.68 0 0 Z " fill="#AB9B9B" transform="translate(374,9)"/>
<path d="M0 0 C0.66 0 1.32 0 2 0 C2 0.66 2 1.32 2 2 C1.34 2 0.68 2 0 2 C0 1.34 0 0.68 0 0 Z " fill="#AB9B9B" transform="translate(349,9)"/>
<path d="M0 0 C0.66 0 1.32 0 2 0 C2 0.66 2 1.32 2 2 C1.34 2 0.68 2 0 2 C0 1.34 0 0.68 0 0 Z " fill="#AB9B9B" transform="translate(324,9)"/>
<path d="M0 0 C0.66 0 1.32 0 2 0 C2 0.66 2 1.32 2 2 C1.34 2 0.68 2 0 2 C0 1.34 0 0.68 0 0 Z " fill="#AB9B9B" transform="translate(299,9)"/>
<path d="M0 0 C0.66 0 1.32 0 2 0 C2 0.66 2 1.32 2 2 C1.34 2 0.68 2 0 2 C0 1.34 0 0.68 0 0 Z " fill="#AB9B9B" transform="translate(274,9)"/>
<path d="M0 0 C0.66 0 1.32 0 2 0 C2 0.66 2 1.32 2 2 C1.34 2 0.68 2 0 2 C0 1.34 0 0.68 0 0 Z " fill="#AB9B9B" transform="translate(249,9)"/>
<path d="M0 0 C0.66 0 1.32 0 2 0 C2 0.66 2 1.32 2 2 C1.34 2 0.68 2 0 2 C0 1.34 0 0.68 0 0 Z " fill="#AB9B9B" transform="translate(224,9)"/>
<path d="M0 0 C0.66 0 1.32 0 2 0 C2 0.66 2 1.32 2 2 C1.34 2 0.68 2 0 2 C0 1.34 0 0.68 0 0 Z " fill="#AB9B9B" transform="translate(199,9)"/>
<path d="M0 0 C0.66 0 1.32 0 2 0 C2 0.66 2 1.32 2 2 C1.34 2 0.68 2 0 2 C0 1.34 0 0.68 0 0 Z " fill="#AB9B9B" transform="translate(174,9)"/>
<path d="M0 0 C0.66 0 1.32 0 2 0 C2 0.66 2 1.32 2 2 C1.34 2 0.68 2 0 2 C0 1.34 0 0.68 0 0 Z " fill="#AB9B9B" transform="translate(149,9)"/>
<path d="M0 0 C0.66 0 1.32 0 2 0 C2 0.66 2 1.32 2 2 C1.34 2 0.68 2 0 2 C0 1.34 0 0.68 0 0 Z " fill="#AB9B9B" transform="translate(124,9)"/>
<path d="M0 0 C0.66 0 1.32 0 2 0 C2 0.66 2 1.32 2 2 C1.34 2 0.68 2 0 2 C0 1.34 0 0.68 0 0 Z " fill="#AB9B9B" transform="translate(99,9)"/>
<path d="M0 0 C0.66 0 1.32 0 2 0 C2 0.66 2 1.32 2 2 C1.34 2 0.68 2 0 2 C0 1.34 0 0.68 0 0 Z " fill="#AB9B9B" transform="translate(74,9)"/>
<path d="M0 0 C0.66 0 1.32 0 2 0 C2 0.66 2 1.32 2 2 C1.34 2 0.68 2 0 2 C0 1.34 0 0.68 0 0 Z " fill="#AB9B9B" transform="translate(49,9)"/>
<path d="M0 0 C0.66 0 1.32 0 2 0 C2 0.66 2 1.32 2 2 C1.34 2 0.68 2 0 2 C0 1.34 0 0.68 0 0 Z " fill="#AB9B9B" transform="translate(24,9)"/>
<path d="" fill="#BFACAC" transform="translate(0,0)"/>
<path d="" fill="#BFACAC" transform="translate(0,0)"/>
<path d="" fill="#BFACAC" transform="translate(0,0)"/>
<path d="" fill="#BFACAC" transform="translate(0,0)"/>
<path d="" fill="#BFACAC" transform="translate(0,0)"/>
<path d="" fill="#BFACAC" transform="translate(0,0)"/>
<path d="" fill="#BFACAC" transform="translate(0,0)"/>
<path d="" fill="#BFACAC" transform="translate(0,0)"/>
<path d="" fill="#BFACAC" transform="translate(0,0)"/>
<path d="" fill="#BFACAC" transform="translate(0,0)"/>
<path d="" fill="#BFACAC" transform="translate(0,0)"/>
<path d="" fill="#BFACAC" transform="translate(0,0)"/>
<path d="" fill="#BFACAC" transform="translate(0,0)"/>
<path d="" fill="#BFACAC" transform="translate(0,0)"/>
<path d="" fill="#BFACAC" transform="translate(0,0)"/>
<path d="" fill="#BFACAC" transform="translate(0,0)"/>
</svg>
